<svg width="22" height="22" viewBox="0 0 22 22" fill="none" xmlns="http://www.w3.org/2000/svg">
<path fill-rule="evenodd" clip-rule="evenodd" d="M10.9615 0.461548C4.90529 0.461548 0 5.36684 0 11.4231C0 16.2736 3.13774 20.3704 7.49495 21.8228C8.04303 21.9188 8.24856 21.5899 8.24856 21.3022C8.24856 21.0418 8.23486 20.1786 8.23486 19.2606C5.48077 19.7676 4.76827 18.5892 4.54904 17.9726C4.42572 17.6575 3.89135 16.6846 3.42548 16.4243C3.04183 16.2188 2.49375 15.7118 3.41178 15.6981C4.275 15.6844 4.89159 16.4928 5.09712 16.8216C6.08365 18.4796 7.65937 18.0137 8.28966 17.726C8.38558 17.0135 8.67332 16.5339 8.98846 16.2599C6.54952 15.9858 4.00096 15.0404 4.00096 10.8476C4.00096 9.65554 4.42572 8.669 5.12452 7.90169C5.0149 7.62765 4.63125 6.5041 5.23413 4.99688C5.23413 4.99688 6.15216 4.70914 8.24856 6.12044C9.12548 5.87381 10.0572 5.75049 10.9889 5.75049C11.9207 5.75049 12.8524 5.87381 13.7293 6.12044C15.8257 4.69544 16.7437 4.99688 16.7437 4.99688C17.3466 6.5041 16.963 7.62765 16.8534 7.90169C17.5522 8.669 17.9769 9.64184 17.9769 10.8476C17.9769 15.0541 15.4147 15.9858 12.9757 16.2599C13.3731 16.6024 13.7156 17.2601 13.7156 18.2878C13.7156 19.7539 13.7019 20.9322 13.7019 21.3022C13.7019 21.5899 13.9075 21.9325 14.4555 21.8228C16.6316 21.0882 18.5224 19.6896 19.862 17.824C21.2016 15.9585 21.9224 13.7198 21.9231 11.4231C21.9231 5.36684 17.0178 0.461548 10.9615 0.461548Z" fill="#FFD166"/>
</svg>
