<svg width="23" height="22" viewBox="0 0 23 22" fill="none" xmlns="http://www.w3.org/2000/svg">
<path fill-rule="evenodd" clip-rule="evenodd" d="M11.5 1C5.7009 1 1 5.70109 1 11.4998C1 17.2989 5.7009 22 11.5 22C17.2987 22 22 17.299 22 11.4998C22 5.70109 17.2987 1 11.5 1ZM11.6227 17.6411C8.23825 17.6411 5.497 14.8929 5.497 11.4999C5.497 8.10702 8.23825 5.35882 11.6227 5.35882C13.2767 5.35882 14.6585 5.96906 15.7193 6.95937L13.9923 8.69044V8.68653C13.3492 8.07238 12.5338 7.75774 11.6227 7.75774C9.60125 7.75774 7.95885 9.46952 7.95885 11.4962C7.95885 13.5225 9.6013 15.2384 11.6227 15.2384C13.4566 15.2384 14.7045 14.1868 14.9613 12.7436H11.6227V10.3485H17.3844C17.461 10.7591 17.5029 11.189 17.5029 11.6381C17.5029 15.1463 15.1602 17.6411 11.6227 17.6411Z" fill="#FFD166"/>
</svg>
