<svg width="22" height="23" viewBox="0 0 22 23" fill="none" xmlns="http://www.w3.org/2000/svg">
<g clip-path="url(#clip0_29_575)">
<path d="M11.0387 0.899994C5.22689 0.899994 0.515625 5.61126 0.515625 11.4231C0.515625 17.2349 5.22689 21.9461 11.0387 21.9461C16.8505 21.9461 21.5618 17.2349 21.5618 11.4231C21.5618 5.61126 16.8505 0.899994 11.0387 0.899994ZM8.46274 15.7847H6.33182V8.92713H8.46274V15.7847ZM7.38412 8.08528C6.71109 8.08528 6.27591 7.60846 6.27591 7.01872C6.27591 6.41694 6.72424 5.95436 7.41153 5.95436C8.09882 5.95436 8.51974 6.41694 8.53289 7.01872C8.53289 7.60846 8.09882 8.08528 7.38412 8.08528ZM16.2454 15.7847H14.1145V11.9843C14.1145 11.0997 13.8054 10.499 13.0348 10.499C12.4462 10.499 12.0965 10.9057 11.9419 11.297C11.8849 11.4362 11.8707 11.6335 11.8707 11.8297V15.7836H9.73866V11.114C9.73866 10.2579 9.71126 9.54207 9.68276 8.92603H11.5342L11.6317 9.87859H11.6745C11.9551 9.43136 12.6424 8.77147 13.7922 8.77147C15.1942 8.77147 16.2454 9.71088 16.2454 11.73V15.7847Z" fill="#FFD166"/>
</g>
<defs>
<clipPath id="clip0_29_575">
<rect width="21.9231" height="21.9231" fill="white" transform="translate(0.0771484 0.461548)"/>
</clipPath>
</defs>
</svg>
